<?xml version="1.0" encoding="UTF-8"?>
<svg width="186px" height="18px" viewBox="0 0 186 18" version="1.1" xmlns="http://www.w3.org/2000/svg" xmlns:xlink="http://www.w3.org/1999/xlink">
    <!-- Generator: Sketch 41 (35326) - http://www.bohemiancoding.com/sketch -->
    <title>DOLLARTRAINER</title>
    <desc>Created with Sketch.</desc>
    <defs></defs>
    <g id="Page-1" stroke="none" stroke-width="1" fill="none" fill-rule="evenodd">
        <g id="Landing-Page" transform="translate(-41.000000, -32.000000)" fill="#FFFFF3">
            <g id="Header">
                <path d="M41.826,49 L46.512,49 C51.066,49 53.926,45.744 53.926,41.674 C53.926,37.648 51.066,34.326 46.512,34.326 L41.826,34.326 L41.826,49 Z M43.08,47.856 L43.08,35.47 L46.512,35.47 C50.406,35.47 52.606,38.242 52.606,41.674 C52.606,45.106 50.384,47.856 46.512,47.856 L43.08,47.856 Z M56.884127,41.674 C56.884127,45.964 59.700127,49.264 64.012127,49.264 C68.302127,49.264 71.140127,45.964 71.140127,41.674 C71.140127,37.384 68.302127,34.084 64.012127,34.084 C59.700127,34.084 56.884127,37.384 56.884127,41.674 Z M69.820127,41.674 C69.820127,45.37 67.532127,48.12 64.012127,48.12 C60.448127,48.12 58.204127,45.37 58.204127,41.674 C58.204127,37.934 60.448127,35.228 64.012127,35.228 C67.532127,35.228 69.820127,37.934 69.820127,41.674 Z M74.626254,49 L82.986254,49 L82.986254,47.856 L75.880254,47.856 L75.880254,34.326 L74.626254,34.326 L74.626254,49 Z M86.098381,49 L94.458381,49 L94.458381,47.856 L87.352381,47.856 L87.352381,34.326 L86.098381,34.326 L86.098381,49 Z M108.240508,49 L109.648508,49 L103.642508,34.326 L102.080508,34.326 L96.074508,49 L97.482508,49 L98.956508,45.392 L106.766508,45.392 L108.240508,49 Z M102.850508,35.558 L106.370508,44.248 L99.352508,44.248 L102.850508,35.558 Z M120.790635,49 L122.308635,49 L118.062635,42.84 C120.240635,42.752 122.132635,41.278 122.132635,38.616 C122.132635,35.932 120.196635,34.326 117.666635,34.326 L112.188635,34.326 L112.188635,49 L113.442635,49 L113.442635,42.928 L116.676635,42.928 L120.790635,49 Z M120.812635,38.616 C120.812635,40.464 119.492635,41.784 117.556635,41.784 L113.442635,41.784 L113.442635,35.47 L117.556635,35.47 C119.492635,35.47 120.812635,36.768 120.812635,38.616 Z M131.844762,36.064 L131.844762,49 L127.532762,49 L127.532762,36.064 L123.990762,36.064 L123.990762,32.412 L135.386762,32.412 L135.386762,36.064 L131.844762,36.064 Z M141.996889,39.826 L142.810889,39.826 C143.66156,39.826 144.31422,39.6500018 144.768889,39.298 C145.223558,38.9459982 145.450889,38.4400033 145.450889,37.78 C145.450889,37.1199967 145.223558,36.6140018 144.768889,36.262 C144.31422,35.9099982 143.66156,35.734 142.810889,35.734 L141.996889,35.734 L141.996889,39.826 Z M151.478889,49 L146.110889,49 L141.996889,42.62 L141.996889,49 L137.684889,49 L137.684889,32.412 L144.394889,32.412 C145.318894,32.412 146.125552,32.5476653 146.814889,32.819 C147.504226,33.0903347 148.072553,33.4606643 148.519889,33.93 C148.967225,34.3993357 149.304554,34.9419969 149.531889,35.558 C149.759223,36.1740031 149.872889,36.8339965 149.872889,37.538 C149.872889,38.7993396 149.568559,39.8223294 148.959889,40.607 C148.351219,41.3916706 147.452895,41.9233319 146.264889,42.202 L151.478889,49 Z M162.687016,42.84 L160.751016,37.318 L158.815016,42.84 L162.687016,42.84 Z M163.831016,46.118 L157.671016,46.118 L156.681016,49 L152.083016,49 L158.397016,32.412 L163.105016,32.412 L169.419016,49 L164.821016,49 L163.831016,46.118 Z M176.007143,32.412 L176.007143,49 L171.695143,49 L171.695143,32.412 L176.007143,32.412 Z M179.86727,49 L179.86727,32.412 L184.17927,32.412 L192.14327,42.554 L192.14327,32.412 L196.43327,32.412 L196.43327,49 L192.14327,49 L184.17927,38.858 L184.17927,49 L179.86727,49 Z M209.731397,36.064 L204.605397,36.064 L204.605397,38.836 L209.445397,38.836 L209.445397,42.488 L204.605397,42.488 L204.605397,45.348 L209.731397,45.348 L209.731397,49 L200.293397,49 L200.293397,32.412 L209.731397,32.412 L209.731397,36.064 Z M217.529524,39.826 L218.343524,39.826 C219.194195,39.826 219.846855,39.6500018 220.301524,39.298 C220.756193,38.9459982 220.983524,38.4400033 220.983524,37.78 C220.983524,37.1199967 220.756193,36.6140018 220.301524,36.262 C219.846855,35.9099982 219.194195,35.734 218.343524,35.734 L217.529524,35.734 L217.529524,39.826 Z M227.011524,49 L221.643524,49 L217.529524,42.62 L217.529524,49 L213.217524,49 L213.217524,32.412 L219.927524,32.412 C220.851529,32.412 221.658187,32.5476653 222.347524,32.819 C223.036861,33.0903347 223.605188,33.4606643 224.052524,33.93 C224.499859,34.3993357 224.837189,34.9419969 225.064524,35.558 C225.291858,36.1740031 225.405524,36.8339965 225.405524,37.538 C225.405524,38.7993396 225.101194,39.8223294 224.492524,40.607 C223.883854,41.3916706 222.98553,41.9233319 221.797524,42.202 L227.011524,49 Z" id="DOLLARTRAINER"></path>
            </g>
        </g>
    </g>
</svg>