<?xml version="1.0" encoding="UTF-8"?>
<svg width="105px" height="16px" viewBox="0 0 105 16" version="1.1" xmlns="http://www.w3.org/2000/svg" xmlns:xlink="http://www.w3.org/1999/xlink">
    <!-- Generator: Sketch 41 (35326) - http://www.bohemiancoding.com/sketch -->
    <title>Group</title>
    <desc>Created with Sketch.</desc>
    <defs></defs>
    <g id="Page-1" stroke="none" stroke-width="1" fill="none" fill-rule="evenodd">
        <g id="Signup-Page" transform="translate(-41.000000, -34.000000)">
            <g id="Header" transform="translate(0.000000, -10.000000)">
                <g id="Group" transform="translate(41.000000, 44.000000)">
                    <polygon id="Path" fill="#177E87" points="22.164254 15 23.440254 15 23.440254 1.47 28.236254 1.47 28.236254 0.326 17.368254 0.326 17.368254 1.47 22.164254 1.47"></polygon>
                    <path d="M44.526381,15 L38.872381,0.326 L34.956381,0.326 L29.280381,15 L32.844381,15 L33.768381,12.514 L40.060381,12.514 L40.962381,15 L44.526381,15 Z M39.202381,9.764 L34.626381,9.764 L36.914381,3.45 L39.202381,9.764 Z M51.334508,15.264 C55.294508,15.264 57.208508,13.24 57.208508,10.556 C57.208508,7.234 54.128508,6.508 51.708508,5.936 C50.124508,5.562 48.782508,5.254 48.782508,4.308 C48.782508,3.428 49.530508,2.834 50.872508,2.834 C52.368508,2.834 53.952508,3.34 55.140508,4.44 L56.878508,2.152 C55.426508,0.81 53.490508,0.106 51.158508,0.106 C47.704508,0.106 45.592508,2.13 45.592508,4.572 C45.592508,7.916 48.672508,8.576 51.070508,9.126 C52.676508,9.522 54.040508,9.83 54.040508,10.908 C54.040508,11.744 53.204508,12.536 51.488508,12.536 C49.464508,12.536 47.858508,11.634 46.824508,10.556 L45.130508,12.932 C46.494508,14.318 48.518508,15.264 51.334508,15.264 Z M64.918635,15.264 C68.878635,15.264 70.792635,13.24 70.792635,10.556 C70.792635,7.234 67.712635,6.508 65.292635,5.936 C63.708635,5.562 62.366635,5.254 62.366635,4.308 C62.366635,3.428 63.114635,2.834 64.456635,2.834 C65.952635,2.834 67.536635,3.34 68.724635,4.44 L70.462635,2.152 C69.010635,0.81 67.074635,0.106 64.742635,0.106 C61.288635,0.106 59.176635,2.13 59.176635,4.572 C59.176635,7.916 62.256635,8.576 64.654635,9.126 C66.260635,9.522 67.624635,9.83 67.624635,10.908 C67.624635,11.744 66.788635,12.536 65.072635,12.536 C63.048635,12.536 61.442635,11.634 60.408635,10.556 L58.714635,12.932 C60.078635,14.318 62.102635,15.264 64.918635,15.264 Z M76.4127619,15 L76.4127619,0.326 L73.2887619,0.326 L73.2887619,15 L76.4127619,15 Z M84.9148889,15.264 C88.8748889,15.264 90.7888889,13.24 90.7888889,10.556 C90.7888889,7.234 87.7088889,6.508 85.2888889,5.936 C83.7048889,5.562 82.3628889,5.254 82.3628889,4.308 C82.3628889,3.428 83.1108889,2.834 84.4528889,2.834 C85.9488889,2.834 87.5328889,3.34 88.7208889,4.44 L90.4588889,2.152 C89.0068889,0.81 87.0708889,0.106 84.7388889,0.106 C81.2848889,0.106 79.1728889,2.13 79.1728889,4.572 C79.1728889,7.916 82.2528889,8.576 84.6508889,9.126 C86.2568889,9.522 87.6208889,9.83 87.6208889,10.908 C87.6208889,11.744 86.7848889,12.536 85.0688889,12.536 C83.0448889,12.536 81.4388889,11.634 80.4048889,10.556 L78.7108889,12.932 C80.0748889,14.318 82.0988889,15.264 84.9148889,15.264 Z M99.8190159,15 L99.8190159,3.076 L104.087016,3.076 L104.087016,0.326 L92.3830159,0.326 L92.3830159,3.076 L96.6730159,3.076 L96.6730159,15 L99.8190159,15 Z" id="FITASSIST" fill="#FFFFF3"></path>
                    <polygon id="Path" fill="#177E87" points="13.134127 15 14.388127 15 14.388127 0.326 13.134127 0.326"></polygon>
                    <polygon id="Path" fill="#177E87" points="0.826 15 2.08 15 2.08 8.048 9.978 8.048 9.978 6.904 2.08 6.904 2.08 1.47 10.132 1.47 10.132 0.326 0.826 0.326"></polygon>
                </g>
            </g>
        </g>
    </g>
</svg>