<?xml version="1.0" encoding="UTF-8"?>
<svg width="29px" height="29px" viewBox="0 0 29 29" version="1.1" xmlns="http://www.w3.org/2000/svg" xmlns:xlink="http://www.w3.org/1999/xlink">
    <!-- Generator: Sketch 41 (35326) - http://www.bohemiancoding.com/sketch -->
    <title>noun_582558_cc</title>
    <desc>Created with Sketch.</desc>
    <defs></defs>
    <g id="Page-1" stroke="none" stroke-width="1" fill="none" fill-rule="evenodd">
        <g id="noun_582558_cc">
            <path d="M24.1764706,4.82352941 C18.7058824,-0.647058824 9.70588235,-0.647058824 4.23529412,4.82352941 C-1.23529412,10.2941176 -1.23529412,19.2941176 4.23529412,24.7647059 C9.70588235,30.2352941 18.7058824,30.2352941 24.1764706,24.7647059 C29.6470588,19.2941176 29.6470588,10.4705882 24.1764706,4.82352941 Z" id="Shape" fill="#1C8891"></path>
            <path d="M16.75,18.5147059 L14.4558824,16.2205882 L12.1617647,18.5147059 C11.6323529,19.0441176 10.9264706,19.0441176 10.3970588,18.5147059 C9.86764706,17.9852941 9.86764706,17.2794118 10.3970588,16.75 L12.6911765,14.4558824 L10.3970588,12.1617647 C9.86764706,11.6323529 9.86764706,10.9264706 10.3970588,10.3970588 C10.9264706,9.86764706 11.6323529,9.86764706 12.1617647,10.3970588 L14.4558824,12.6911765 L16.75,10.3970588 C17.2794118,9.86764706 17.9852941,9.86764706 18.5147059,10.3970588 C19.0441176,10.9264706 19.0441176,11.6323529 18.5147059,12.1617647 L16.2205882,14.4558824 L18.5147059,16.75 C19.0441176,17.2794118 19.0441176,17.9852941 18.5147059,18.5147059 C18.1617647,19.0441176 17.2794118,19.0441176 16.75,18.5147059 Z" id="Path" fill="#F2F2F2"></path>
        </g>
    </g>
</svg>